<?xml version="1.0" standalone="no"?>
<!DOCTYPE svg PUBLIC "-//W3C//DTD SVG 20010904//EN"
 "http://www.w3.org/TR/2001/REC-SVG-20010904/DTD/svg10.dtd">
<svg version="1.0" xmlns="http://www.w3.org/2000/svg"
 width="664.000000pt" height="376.000000pt" viewBox="0 0 664.000000 376.000000"
 preserveAspectRatio="xMidYMid meet">

<g transform="translate(0.000000,376.000000) scale(0.100000,-0.100000)"
fill="#000000" stroke="none">
<path d="M3431 3376 c2 -2 24 -6 48 -9 29 -4 40 -2 30 4 -13 8 -88 14 -78 5z"/>
<path d="M3538 3363 c6 -2 18 -2 25 0 6 3 1 5 -13 5 -14 0 -19 -2 -12 -5z"/>
<path d="M3600 3358 c0 -4 15 -8 34 -8 18 0 49 -3 67 -6 19 -4 31 -4 28 -1 -9
11 -129 24 -129 15z"/>
<path d="M2820 3350 c-36 -4 -117 -20 -180 -35 -139 -33 -144 -34 -137 -41 3
-3 56 6 119 20 62 14 158 32 213 41 145 25 137 33 -15 15z"/>
<path d="M3753 3333 c9 -2 23 -2 30 0 6 3 -1 5 -18 5 -16 0 -22 -2 -12 -5z"/>
<path d="M3813 3323 c9 -2 23 -2 30 0 6 3 -1 5 -18 5 -16 0 -22 -2 -12 -5z"/>
<path d="M3868 3313 c7 -3 16 -2 19 1 4 3 -2 6 -13 5 -11 0 -14 -3 -6 -6z"/>
<path d="M4005 3286 c121 -30 116 -29 109 -12 -6 17 -46 26 -139 32 l-70 4
100 -24z"/>
<path d="M3110 3283 c-253 -25 -612 -100 -641 -134 -10 -10 -41 -25 -70 -33
-103 -27 -146 -52 -168 -95 -11 -21 -26 -41 -32 -43 -21 -7 -14 -81 14 -141
l27 -59 -33 -39 c-17 -21 -36 -39 -41 -39 -5 0 -24 17 -42 38 -25 28 -35 34
-44 25 -10 -9 -6 -19 15 -47 16 -21 25 -42 21 -51 -4 -11 -2 -14 6 -9 8 5 9 2
5 -10 -5 -11 -3 -15 5 -10 8 5 9 2 5 -10 -4 -9 -3 -15 2 -12 4 3 16 -23 27
-57 18 -61 21 -108 11 -177 -2 -19 -5 -40 -6 -47 -1 -6 -10 -9 -21 -6 -16 4
-20 0 -20 -21 0 -14 5 -26 10 -26 6 0 10 -7 10 -15 0 -30 19 -14 30 24 6 22
15 41 22 43 8 3 8 27 -1 96 -9 70 -9 96 0 110 9 15 8 34 -4 88 l-16 69 44 45
c36 37 42 48 34 65 -8 17 -8 18 3 3 11 -15 17 -12 67 26 66 51 118 79 134 73
16 -5 89 45 116 79 12 15 24 24 28 20 8 -8 -52 -72 -89 -94 -16 -9 -28 -25
-28 -35 0 -15 -5 -18 -23 -13 -19 4 -42 -8 -103 -53 -43 -32 -93 -74 -111 -92
l-32 -34 15 -58 c8 -32 12 -62 9 -67 -3 -5 6 -17 20 -26 24 -16 25 -20 25
-116 0 -63 4 -97 10 -93 6 3 10 -3 10 -14 0 -12 -7 -21 -15 -21 -26 0 -19 -47
8 -54 12 -3 33 -19 46 -36 l22 -31 -50 26 c-28 14 -51 24 -52 23 0 -2 -2 -16
-4 -33 -2 -16 -11 -61 -20 -100 -21 -95 -31 -250 -16 -259 8 -5 10 3 9 25 -2
17 2 33 7 35 6 3 10 -21 9 -59 -1 -67 28 -198 52 -234 19 -30 18 -43 -2 -15
-18 26 -64 156 -65 186 -1 12 -5 6 -10 -14 -11 -47 19 -162 62 -233 l17 -29
17 52 c20 62 45 65 57 7 17 -80 96 -201 198 -302 43 -43 56 -61 44 -63 -9 -2
-13 -10 -10 -19 3 -8 6 -21 6 -28 0 -8 7 -11 19 -8 12 3 17 11 14 19 -3 8 1
14 10 14 22 0 31 -18 18 -34 -6 -7 -9 -15 -6 -17 2 -3 -5 -10 -15 -17 -17 -10
-18 -9 -13 6 5 13 1 12 -19 -6 l-25 -22 -53 57 c-29 32 -75 81 -101 109 -101
109 -206 291 -236 410 -21 83 -21 84 -38 61 -12 -17 -14 -16 -19 10 -16 83
-24 187 -20 260 4 69 2 82 -9 77 -17 -6 -27 -76 -27 -179 0 -52 3 -66 11 -55
8 11 9 7 4 -16 -13 -67 42 -274 119 -447 14 -31 25 -60 25 -64 -1 -3 3 -9 8
-12 16 -12 39 -45 25 -37 -10 6 -10 0 2 -22 9 -17 16 -37 16 -44 0 -16 36 -49
44 -41 3 4 6 1 6 -5 0 -19 0 -20 15 -63 33 -93 13 -79 -75 51 -40 61 -75 110
-77 110 -5 0 -5 0 42 -80 42 -70 152 -218 120 -160 -8 13 -7 13 8 1 18 -15 23
-26 7 -16 -13 8 -13 -6 0 -25 9 -13 14 -11 35 13 13 15 31 27 39 27 8 0 38
-19 68 -42 29 -23 44 -31 33 -18 -27 31 -13 23 140 -90 73 -53 167 -117 211
-142 87 -50 134 -77 239 -141 39 -23 90 -51 114 -62 l43 -19 65 33 c41 22 62
39 59 47 -3 7 0 11 7 8 7 -2 21 3 32 12 11 8 14 13 8 9 -7 -3 -13 -4 -13 -1 0
11 55 33 69 28 9 -3 11 0 6 8 -5 9 -4 11 4 6 21 -13 225 111 399 241 67 51
122 88 122 83 0 -6 17 1 37 15 21 14 41 25 45 25 4 0 19 -12 33 -27 l26 -28
19 25 c11 14 18 31 15 38 -3 7 0 10 5 7 5 -3 21 12 34 34 14 22 29 42 34 45
14 8 13 67 -1 60 -7 -3 -4 1 7 10 10 8 16 22 13 30 -4 9 -1 13 6 10 7 -2 17 6
23 18 6 13 37 70 69 128 55 102 105 218 105 243 -1 6 -16 -25 -34 -70 -41
-100 -111 -232 -143 -270 l-23 -28 15 30 c49 99 87 193 92 224 3 20 12 47 19
61 18 36 34 89 34 117 0 13 7 34 15 46 14 22 17 66 15 232 0 52 -19 135 -31
135 -10 0 -19 -43 -11 -50 12 -8 14 -171 2 -229 -16 -82 -30 -131 -38 -131 -5
0 -6 17 -4 38 6 51 -12 30 -27 -33 -28 -112 -167 -354 -257 -444 -19 -18 -34
-36 -34 -40 0 -3 -30 -33 -68 -66 -37 -33 -61 -52 -53 -42 13 17 7 23 -22 18
-4 0 -6 4 -5 10 2 6 -3 14 -11 17 -9 3 -11 0 -7 -9 4 -8 -1 -3 -13 11 l-20 25
112 115 c112 114 140 158 201 303 16 38 46 51 46 20 0 -15 3 -15 21 4 27 27
58 137 65 233 4 49 11 79 21 87 13 10 14 23 4 90 -10 70 -41 223 -47 231 -1 2
-24 -9 -51 -24 l-48 -27 29 31 c16 18 38 34 48 38 10 3 18 10 18 15 0 6 -4 8
-9 5 -4 -3 -13 27 -18 67 -6 39 -6 74 -2 75 5 2 9 11 9 20 0 15 -2 15 -10 2
-7 -11 -10 4 -8 49 2 44 7 66 17 69 8 3 11 0 7 -6 -3 -6 7 -4 23 4 22 11 28
20 24 35 -3 11 -9 17 -12 11 -3 -5 -16 -11 -28 -14 -27 -7 -30 10 -11 63 18
52 53 68 61 27 3 -18 5 -16 6 7 1 37 -57 98 -156 164 -54 35 -65 40 -88 31
-23 -9 -26 -8 -20 8 4 14 -5 26 -33 46 -39 27 -88 84 -79 92 3 3 17 -10 31
-28 26 -34 98 -82 109 -72 7 8 38 -10 120 -68 38 -27 71 -48 73 -45 2 2 17 28
34 58 16 30 30 50 30 46 0 -15 -31 -82 -47 -99 -15 -17 -13 -20 27 -56 l43
-38 -17 -84 c-16 -85 -21 -284 -5 -275 4 3 6 -12 4 -32 -1 -21 0 -27 2 -13 3
14 9 27 14 30 5 4 9 22 8 40 0 113 3 143 16 157 17 16 20 38 5 28 -11 -7 8 55
22 70 5 6 4 -3 -1 -18 -14 -35 -14 -50 -1 -42 6 3 10 15 10 25 0 10 6 20 13
23 9 3 8 8 -3 22 -11 14 -11 17 -1 11 10 -6 12 -4 7 11 -5 16 -1 19 24 18 16
0 30 -4 30 -10 1 -5 8 4 17 20 9 17 24 36 35 43 10 7 18 22 18 34 0 17 -2 18
-15 8 -13 -11 -15 -8 -15 19 0 17 -4 31 -9 31 -6 0 -4 15 4 34 l15 34 -113
159 c-62 87 -121 159 -131 161 -11 2 -16 0 -12 -6 3 -6 0 -13 -6 -15 -9 -4 -7
-6 3 -6 15 -1 59 -41 45 -41 -10 0 32 -61 58 -83 12 -10 15 -15 7 -11 -8 4 5
-18 29 -50 23 -31 46 -56 51 -56 5 0 8 -4 6 -9 -1 -5 6 -16 16 -23 17 -12 17
-19 8 -56 -7 -25 -27 -57 -50 -79 -20 -21 -42 -47 -48 -58 -10 -16 -13 -17
-27 -5 -10 7 -26 26 -37 42 l-21 28 26 68 c14 37 26 75 26 85 0 10 -14 45 -32
78 -27 49 -40 64 -78 81 -140 63 -499 157 -680 178 -102 12 -486 21 -560 13z
m220 -184 c0 -15 7 -19 31 -19 27 0 30 -2 19 -15 -7 -8 -15 -13 -19 -10 -4 2
-5 -10 -3 -28 l5 -32 -29 25 c-18 16 -23 18 -14 6 11 -14 11 -18 2 -12 -8 5
-21 1 -33 -10 -18 -16 -19 -16 -19 0 0 10 5 26 10 37 9 16 7 19 -9 19 -11 0
-23 5 -26 10 -4 6 5 10 20 10 17 0 29 8 37 25 12 27 28 24 28 -6z m750 18 c0
-2 -10 -12 -22 -23 l-23 -19 19 23 c18 21 26 27 26 19z m-1529 -47 c6 0 3 -7
-6 -16 -21 -21 -24 -16 -17 26 5 27 7 30 10 13 2 -13 8 -23 13 -23z m79 -30
c-12 -21 -25 -26 -35 -11 -3 6 3 14 12 20 27 16 35 13 23 -9z m1399 6 c9 -11
9 -16 0 -21 -10 -7 -28 10 -29 28 0 12 17 8 29 -7z m-1197 -35 c3 -17 0 -27
-5 -24 -5 3 -12 1 -16 -5 -4 -7 -11 -4 -19 8 -11 17 -10 20 8 20 11 0 20 7 20
15 0 26 8 17 12 -14z m991 -23 c-10 -17 -53 -19 -46 -2 2 6 -2 16 -9 20 -9 6
-6 10 12 14 29 7 55 -13 43 -32z m608 -31 c-10 -9 -11 -8 -5 6 3 10 9 15 12
12 3 -3 0 -11 -7 -18z m159 -200 c0 -2 -10 -12 -21 -23 -22 -19 -22 -19 -8 4
12 19 29 30 29 19z m-2245 -67 c-9 -14 -25 5 -25 30 0 12 3 12 16 -2 9 -9 13
-21 9 -28z m1971 24 c-3 -9 -6 -21 -6 -27 0 -8 -3 -8 -10 -1 -12 12 -3 44 12
44 6 0 7 -7 4 -16z m-1898 -61 c-18 -27 -36 -50 -39 -53 -4 -3 -9 -16 -12 -30
-4 -24 -4 -24 -6 3 -1 36 21 79 55 106 39 30 39 26 2 -26z m1835 -5 c21 -28
40 -98 26 -98 -5 0 -9 11 -9 25 0 14 -4 25 -9 25 -5 0 -20 17 -32 38 -13 20
-28 44 -33 52 -16 25 35 -13 57 -42z m-1896 5 c1 -22 -1 -24 -8 -10 -6 9 -7
22 -4 27 9 14 10 13 12 -17z m1934 -14 c-9 -22 -10 -22 -10 -3 -1 11 2 24 6
27 12 12 14 0 4 -24z m-2001 2 c0 -11 3 -26 6 -35 4 -12 0 -16 -15 -16 -14 0
-25 9 -31 26 -15 38 -13 44 15 44 18 0 25 -5 25 -19z m1321 -2 c8 -14 11 -136
3 -171 -8 -38 -17 -35 -40 14 -25 55 -61 80 -124 86 l-52 5 4 -284 c4 -300 8
-326 52 -347 15 -8 -17 -11 -126 -11 -82 -1 -148 2 -148 5 0 3 10 14 23 24 22
18 22 22 27 314 l5 296 -38 0 c-65 0 -105 -26 -135 -86 -40 -83 -52 -78 -51
19 1 46 -1 92 -4 103 -12 37 4 43 123 47 184 6 473 -2 481 -14z m302 -26 c-7
-2 -19 -2 -25 0 -7 3 -2 5 12 5 14 0 19 -2 13 -5z m-1482 -61 c-11 -25 -61
-60 -61 -42 0 20 13 39 23 33 6 -4 7 -1 2 6 -4 7 3 23 16 38 20 21 25 22 27 8
2 -9 -1 -29 -7 -43z m1582 51 c-7 -2 -19 -2 -25 0 -7 3 -2 5 12 5 14 0 19 -2
13 -5z m192 -1 c23 -16 65 -75 65 -89 0 -14 -2 -14 -18 0 -10 10 -21 15 -24
12 -7 -7 -33 33 -40 63 -6 23 -1 27 17 14z m-1885 -164 c0 -31 -4 -60 -10 -63
-6 -4 -10 22 -10 72 0 54 3 73 10 63 5 -8 10 -41 10 -72z m1660 56 l40 -16 0
-77 0 -76 -32 52 c-34 56 -69 77 -126 77 -57 0 -101 -68 -73 -113 5 -7 60 -39
122 -70 135 -66 159 -93 159 -176 0 -68 -29 -111 -98 -148 -65 -36 -136 -43
-241 -27 l-81 12 -1 57 c-1 31 -2 71 -4 89 -3 43 8 40 30 -9 30 -67 66 -89
140 -89 57 0 66 3 84 26 25 31 27 71 6 101 -8 11 -50 36 -92 53 -89 37 -117
57 -150 105 -42 61 -23 162 39 208 65 49 185 58 278 21z m461 -45 l-9 -54 -1
56 c0 31 2 59 6 63 13 12 14 -8 4 -65z m-1510 34 c0 -16 3 -39 5 -53 8 -43 -3
-52 -31 -24 -23 23 -31 25 -102 22 l-77 -3 2 -50 c2 -27 5 -63 8 -79 l6 -28
89 4 89 4 0 -43 0 -43 -90 0 -90 0 0 -95 0 -95 84 0 c69 0 88 4 110 21 14 11
26 27 26 35 0 8 5 14 11 14 8 0 9 -18 4 -57 -12 -108 4 -99 -163 -95 -81 2
-178 0 -215 -5 -71 -10 -93 -4 -53 15 32 14 37 56 35 310 -1 197 -3 215 -20
230 -10 9 -19 20 -19 24 0 10 58 14 233 16 l157 2 1 -27z m-457 4 c-2 -7 -25
-31 -50 -52 -30 -24 -42 -31 -35 -18 5 11 8 23 5 25 -5 6 18 27 50 44 29 16
36 16 30 1z m1774 -56 c8 -22 8 -33 0 -37 -6 -4 -8 -3 -5 3 3 5 -14 26 -38 47
-55 46 -58 60 -6 35 26 -12 42 -29 49 -48z m-1865 -58 c-3 -7 -9 -10 -14 -7
-14 8 -11 21 5 21 8 0 12 -6 9 -14z m75 -15 c-7 -13 -11 -27 -10 -31 1 -5 -2
-6 -7 -3 -5 3 -25 -12 -45 -34 -41 -45 -46 -48 -39 -20 3 11 9 18 13 15 4 -3
15 6 24 20 20 31 21 41 1 25 -24 -20 -18 -5 7 16 12 10 18 13 14 7 -12 -22 13
-14 26 7 18 28 32 25 16 -2z m1769 -30 c13 -12 23 -26 23 -31 0 -10 -59 34
-59 46 -1 13 12 8 36 -15z m-1774 -50 c-12 -6 -26 -26 -31 -47 -10 -35 -10
-36 -11 -6 -1 34 7 49 29 58 26 10 36 6 13 -5z m1763 -2 c1 0 4 -17 8 -36 4
-25 3 -31 -4 -20 -5 8 -10 22 -10 31 0 9 -10 21 -22 28 -23 11 -23 11 2 5 14
-4 25 -7 26 -8z m74 -26 c6 -11 8 -20 6 -20 -3 0 -10 9 -16 20 -6 11 -8 20 -6
20 3 0 10 -9 16 -20z m-1798 -22 c-11 -13 -20 -27 -19 -32 3 -12 -30 -32 -39
-24 -3 4 -2 13 2 20 5 7 9 17 9 23 0 10 42 35 59 35 5 0 0 -10 -12 -22z m1697
-3 c5 -5 12 -20 15 -32 10 -30 -14 -31 -40 -1 -13 14 -14 19 -4 14 8 -4 4 2
-10 13 l-25 21 28 -2 c16 -2 32 -7 36 -13z m-1793 -143 c-13 -55 -46 -233 -46
-249 0 -2 -4 -1 -10 2 -5 3 -7 19 -4 34 5 21 0 35 -15 50 -12 12 -21 29 -20
39 0 14 2 14 9 -3 7 -16 9 -17 9 -3 1 9 -2 24 -5 33 -5 13 -8 14 -15 3 -7 -10
-9 -9 -9 5 0 28 27 19 40 -14 13 -31 13 -31 37 57 12 49 26 103 30 119 5 22 8
25 11 12 2 -10 -3 -49 -12 -85z m1878 -51 l22 -92 12 36 c8 19 18 35 23 35 6
0 5 -8 -1 -20 -6 -12 -8 -30 -5 -40 4 -12 2 -20 -5 -20 -6 0 -8 -4 -5 -10 3
-5 1 -10 -5 -10 -6 0 -11 -12 -10 -27 5 -67 -1 -134 -10 -128 -5 3 -9 29 -9
58 1 44 -23 220 -35 259 -14 46 -17 72 -6 62 7 -7 22 -53 34 -103z m-1981 85
c22 -17 22 -26 -2 -26 -10 0 -21 9 -24 20 -6 23 1 25 26 6z m1940 -51 c2 -14
1 -25 -3 -25 -9 0 -45 41 -59 67 l-12 23 35 -21 c20 -11 36 -30 39 -44z m140
45 c-3 -12 -14 -20 -26 -20 -19 0 -20 1 -2 20 10 11 21 20 26 20 4 0 5 -9 2
-20z m-1915 -15 c-6 -14 -21 -31 -32 -39 -20 -12 -22 -12 -23 5 -2 17 40 59
58 59 5 0 3 -11 -3 -25z m-29 -140 c-22 -37 -33 -43 -45 -23 -4 6 4 21 20 35
39 33 49 28 25 -12z m1802 14 c11 -5 17 -14 14 -20 -4 -5 -1 -9 4 -9 6 0 11
-4 11 -10 0 -5 -7 -6 -17 -3 -12 5 -14 3 -8 -7 5 -9 4 -11 -4 -6 -6 4 -18 20
-26 37 -17 31 -8 37 26 18z m-1919 -87 c9 -7 13 -23 10 -43 -4 -28 -6 -29 -20
-15 -8 8 -16 23 -17 33 0 10 -4 24 -8 30 -9 14 16 11 35 -5z m2044 -21 c-1
-22 -3 -37 -5 -35 -2 2 -11 -2 -20 -8 -9 -7 -13 -9 -9 -4 4 4 3 19 -2 32 -8
19 -5 26 13 39 12 8 22 15 23 15 0 0 0 -18 0 -39z m-98 -38 c6 -18 7 -33 2
-33 -5 0 -10 -10 -12 -22 -3 -18 -7 -14 -17 20 -12 42 -6 92 9 76 4 -5 12 -24
18 -41z m-1848 0 c0 -52 -12 -68 -29 -42 -7 12 -8 19 -3 15 5 -3 7 6 4 19 -2
15 0 25 7 25 7 0 9 5 6 10 -3 6 -1 10 4 10 6 0 11 -17 11 -37z m-54 -33 c-5
-42 -16 -51 -16 -13 0 26 6 43 16 43 2 0 2 -14 0 -30z m649 -58 c-3 -3 -26 -1
-50 6 -25 7 -114 13 -198 14 -111 1 -136 3 -92 8 l60 7 -57 1 c-32 1 -58 7
-58 12 0 6 65 10 173 11 94 1 183 4 197 8 23 6 25 4 28 -27 2 -19 1 -37 -3
-40z m148 71 c-7 -2 -21 -2 -30 0 -10 3 -4 5 12 5 17 0 24 -2 18 -5z m57 -33
c0 -22 -4 -40 -10 -40 -11 0 -14 63 -3 73 11 12 13 8 13 -33z m-885 -1 c11
-17 -3 -23 -20 -9 -9 8 -15 8 -15 2 0 -6 10 -18 22 -26 12 -9 18 -16 12 -16
-17 0 -40 33 -42 58 -1 19 2 20 18 12 10 -6 22 -15 25 -21z m771 -4 c-1 -19
-6 -37 -13 -40 -9 -3 -13 7 -13 35 0 27 4 40 13 40 9 0 13 -12 13 -35z m224 0
c0 -19 -4 -35 -10 -35 -5 0 -10 16 -10 35 0 19 5 35 10 35 6 0 10 -16 10 -35z
m90 0 c0 -19 -4 -35 -10 -35 -5 0 -10 16 -10 35 0 19 5 35 10 35 6 0 10 -16
10 -35z m100 0 c0 -24 -5 -35 -15 -35 -10 0 -15 11 -15 35 0 24 5 35 15 35 10
0 15 -11 15 -35z m279 25 c77 0 92 -3 88 -14 -3 -8 -1 -17 6 -20 7 -2 -28 -5
-78 -5 -49 -1 -111 -8 -137 -16 l-48 -14 0 41 0 41 38 -7 c20 -3 79 -6 131 -6z
m424 3 c-7 -2 -19 -2 -25 0 -7 3 -2 5 12 5 14 0 19 -2 13 -5z m147 -1 c0 -12
-39 -46 -45 -41 -6 7 24 49 36 49 5 0 9 -4 9 -8z m-344 -15 c4 -4 -10 -8 -32
-8 l-39 -2 40 -7 c38 -7 38 -7 -18 -9 -37 0 -56 3 -52 9 3 6 -1 10 -9 10 -9 0
-16 4 -16 10 0 11 115 9 126 -3z m329 -37 c-10 -11 -22 -20 -26 -20 -4 0 2 11
14 24 12 14 24 23 26 20 2 -2 -4 -13 -14 -24z m-105 -95 c0 -23 -3 -27 -10
-15 -5 8 -10 29 -10 45 0 23 3 27 10 15 5 -8 10 -28 10 -45z m-1829 14 c-9
-22 -10 -22 -10 -3 -1 11 2 24 6 27 12 12 14 0 4 -24z m168 -47 c8 -23 18 -42
22 -42 4 0 14 18 23 40 25 62 46 53 46 -20 0 -68 -17 -82 -22 -17 l-4 42 -23
-50 -23 -50 -23 50 -23 50 -4 -45 c-4 -37 -5 -33 -6 23 -2 79 12 86 37 19z
m146 -7 c0 -59 12 -77 46 -68 16 4 19 15 19 58 0 35 5 55 13 58 11 4 12 -6 5
-51 -5 -31 -14 -62 -20 -69 -14 -18 -53 -16 -72 3 -20 19 -22 110 -3 117 6 3
12 6 12 6 0 1 0 -24 0 -54z m345 -12 c0 -49 -3 -63 -15 -63 -12 0 -15 14 -15
63 0 50 3 64 15 64 12 0 15 -14 15 -64z m183 56 c7 -1 -1 -4 -17 -8 -40 -8
-42 -23 -6 -43 39 -22 49 -47 25 -64 -23 -17 -75 -18 -75 -3 0 6 7 9 15 5 20
-7 45 3 45 19 0 7 -16 22 -35 34 -19 11 -35 27 -35 36 0 17 37 36 58 29 8 -2
19 -5 25 -5z m100 -7 c-32 -3 -33 -4 -33 -52 0 -47 1 -49 33 -53 28 -3 26 -4
-10 -5 l-43 -2 0 59 c0 58 1 60 28 63 15 2 34 1 42 -2 8 -3 0 -6 -17 -8z m136
4 c15 -10 14 -53 -1 -59 -10 -3 -9 -12 4 -36 22 -40 6 -40 -24 -1 -26 35 -41
39 -36 8 2 -11 -3 -23 -9 -25 -10 -4 -13 13 -13 60 l0 65 34 -2 c18 -2 38 -6
45 -10z m118 -41 c12 28 23 45 23 39 0 -6 -12 -38 -26 -70 l-27 -59 -29 63
c-16 35 -25 68 -21 75 4 7 17 -10 32 -43 l25 -55 23 50z m83 -15 c0 -51 -3
-68 -12 -65 -24 9 -15 133 10 135 1 0 2 -31 2 -70z m118 64 c12 -4 22 -10 22
-15 0 -5 -7 -6 -15 -3 -45 18 -83 -23 -65 -71 11 -29 36 -38 63 -23 20 10 21
10 8 -5 -28 -34 -93 -11 -105 38 -8 31 8 63 37 75 28 11 27 11 55 4z m252 -13
c0 -4 -12 -7 -27 -6 -39 0 -38 -19 2 -38 36 -17 45 -43 23 -65 -14 -14 -64
-16 -72 -3 -3 4 6 6 19 3 32 -6 48 27 20 42 -71 41 -63 91 13 78 12 -3 22 -7
22 -11z m-1194 -46 l-1 -54 35 -4 c29 -3 27 -4 -12 -5 l-48 -2 0 60 c0 43 4
60 13 60 10 0 13 -15 13 -55z m137 48 c-19 -4 -23 -11 -24 -46 -1 -23 -1 -49
0 -58 1 -9 -5 -16 -14 -16 -12 0 -15 13 -15 60 0 54 -2 59 -20 54 -11 -3 -20
-1 -20 4 0 5 26 8 58 8 31 -1 47 -4 35 -6z m920 0 c-31 -4 -32 -6 -31 -53 0
-47 1 -49 31 -53 25 -3 22 -4 -13 -5 l-45 -2 0 60 0 60 45 -2 c36 -1 38 -2 13
-5z m348 -20 c-12 -20 -14 -14 -5 12 4 9 9 14 11 11 3 -2 0 -13 -6 -23z m-32
-62 c0 -10 -2 -12 -6 -3 -2 6 -9 10 -14 6 -5 -3 -9 5 -9 17 0 18 2 19 15 9 8
-7 15 -20 14 -29z m-1809 25 c0 -2 -7 -7 -16 -10 -8 -3 -12 -2 -9 4 6 10 25
14 25 6z m1508 -161 c-3 -3 -9 2 -12 12 -6 14 -5 15 5 6 7 -7 10 -15 7 -18z
m-608 -95 c0 -5 -7 -10 -16 -10 -8 0 -12 5 -9 10 3 6 10 10 16 10 5 0 9 -4 9
-10z m-960 -88 c-9 -3 -9 -7 1 -14 10 -7 6 -8 -13 -4 -19 4 -30 1 -36 -10 -8
-15 -10 -15 -15 0 -4 10 -3 15 3 11 5 -3 13 13 16 36 l7 42 25 -28 c17 -20 21
-30 12 -33z m1944 12 c5 -17 1 -23 -16 -27 -12 -4 -24 -4 -27 -2 -2 3 1 5 7 5
7 0 12 5 12 11 0 5 -4 7 -10 4 -14 -9 -12 19 2 33 14 14 23 7 32 -24z m-22
-150 c-4 -23 -2 -26 12 -21 12 5 9 -3 -10 -28 -22 -29 -31 -34 -52 -28 -20 5
-23 3 -17 -8 6 -11 5 -11 -5 -2 -7 6 -9 16 -6 22 9 14 36 14 36 1 0 -5 5 -10
11 -10 8 0 7 6 -2 17 -11 13 -11 17 -1 20 6 3 10 9 6 14 -3 5 2 16 10 25 9 9
13 20 10 26 -4 6 -2 8 3 5 6 -4 8 -19 5 -33z m-1724 -99 c51 -48 47 -63 -4
-16 -35 32 -64 71 -64 86 0 5 5 2 11 -7 5 -10 31 -38 57 -63z m1652 55 c0 -5
-2 -10 -4 -10 -3 0 -8 5 -11 10 -3 6 -1 10 4 10 6 0 11 -4 11 -10z m-1757 -33
c-3 -4 -12 -6 -20 -2 -12 4 -13 2 -5 -7 7 -9 6 -20 -3 -38 -13 -24 -14 -24
-10 15 4 48 1 44 24 42 11 0 17 -5 14 -10z m1733 1 c5 4 6 3 2 -2 -4 -5 3 -17
15 -28 12 -11 17 -17 10 -14 -6 4 -13 2 -15 -3 -1 -4 -13 8 -26 27 -13 20 -17
30 -9 24 7 -7 18 -8 23 -4z m-1139 -30 c-3 -8 -6 -5 -6 6 -1 11 2 17 5 13 3
-3 4 -12 1 -19z m1043 19 c0 -2 -10 -12 -22 -23 l-23 -19 19 23 c18 21 26 27
26 19z m-248 -38 c-19 -17 -36 -28 -39 -25 -7 6 48 55 62 55 6 0 -5 -13 -23
-30z m187 -32 c-2 -1 -15 -11 -29 -22 l-25 -20 19 23 c11 12 24 22 29 22 6 0
8 -1 6 -3z m-139 -28 c0 -28 -147 -118 -171 -103 -5 3 -8 1 -7 -4 8 -28 -106
-93 -133 -76 -7 4 -9 3 -6 -3 7 -12 -37 -38 -50 -30 -5 4 -25 -4 -44 -17 -43
-28 -73 -40 -63 -24 4 6 -6 4 -22 -4 -16 -9 -45 -22 -65 -31 -36 -15 -37 -15
-31 5 3 12 23 28 46 39 87 38 331 183 356 210 8 9 29 25 45 35 l30 18 -29 -32
c-28 -30 -29 -32 -8 -32 11 0 38 11 58 25 25 17 40 22 44 14 5 -6 9 -3 13 10
3 14 10 19 21 15 9 -3 16 -10 16 -15z m48 -42 c-40 -35 -103 -81 -160 -116
-65 -39 -42 -18 48 44 48 33 98 70 113 82 41 35 40 26 -1 -10z m-1076 -8 c22
-12 38 -28 38 -40 0 -4 -18 -6 -40 -6 -43 0 -74 24 -64 50 6 17 29 16 66 -4z
m-122 -31 c0 -5 -11 -1 -25 8 -14 9 -25 18 -25 20 0 2 11 -2 25 -8 14 -6 25
-15 25 -20z m258 -40 c34 -23 62 -46 62 -50 0 -5 4 -6 10 -3 5 3 35 -11 67
-31 54 -34 56 -37 38 -50 -23 -17 -35 -14 -47 9 -4 9 -12 25 -16 34 -10 20
-59 36 -68 22 -3 -5 -14 -3 -25 5 -11 7 -28 12 -38 9 -21 -5 -43 18 -45 51 0
13 -6 22 -12 19 -6 -2 -14 5 -17 17 -7 28 7 22 91 -32z m-168 -24 c0 -3 -13 4
-30 16 -16 12 -30 24 -30 26 0 3 14 -4 30 -16 17 -12 30 -24 30 -26z m434
-149 c-7 -16 -24 -21 -24 -6 0 5 -3 17 -7 26 -5 15 -3 16 15 6 13 -7 19 -17
16 -26z"/>
<path d="M3430 1615 c0 -22 4 -26 23 -23 14 2 22 10 22 23 0 13 -8 21 -22 23
-19 3 -23 -1 -23 -23z"/>
<path d="M3870 920 c0 -5 5 -10 11 -10 5 0 7 5 4 10 -3 6 -8 10 -11 10 -2 0
-4 -4 -4 -10z"/>
<path d="M2300 3223 c-25 -9 -40 -18 -33 -20 17 -6 93 16 93 27 0 13 -5 12
-60 -7z"/>
<path d="M2040 2809 c0 -5 -4 -7 -10 -4 -13 8 -13 -1 0 -26 11 -20 35 -25 45
-9 3 5 0 18 -7 30 -14 22 -28 27 -28 9z"/>
<path d="M1990 2761 c0 -11 11 -28 25 -37 13 -9 27 -24 30 -35 4 -10 13 -19
21 -19 21 0 -17 69 -51 93 -24 17 -25 17 -25 -2z"/>
<path d="M2070 2712 c0 -5 10 -17 22 -28 l21 -19 -18 28 c-18 28 -25 33 -25
19z"/>
<path d="M4530 2545 c-14 -36 -7 -55 19 -48 17 4 18 9 9 36 -15 43 -16 44 -28
12z"/>
<path d="M2104 2522 c-16 -10 -36 -52 -26 -52 11 0 27 19 35 43 7 19 7 20 -9
9z"/>
<path d="M4473 2332 c-23 -17 -23 -17 -6 -77 15 -54 31 -81 41 -70 3 2 -1 18
-6 35 -12 34 -6 64 11 53 6 -4 8 2 4 18 -4 13 -7 32 -7 42 0 21 -9 21 -37 -1z"/>
<path d="M4541 2294 c0 -11 3 -14 6 -6 3 7 2 16 -1 19 -3 4 -6 -2 -5 -13z"/>
<path d="M2230 2290 c8 -5 22 -10 30 -10 13 0 13 1 0 10 -8 5 -22 10 -30 10
-13 0 -13 -1 0 -10z"/>
<path d="M4370 2290 c-13 -9 -13 -10 0 -9 8 0 24 4 35 9 l20 9 -20 0 c-11 0
-27 -4 -35 -9z"/>
<path d="M4441 2244 c0 -11 3 -14 6 -6 3 7 2 16 -1 19 -3 4 -6 -2 -5 -13z"/>
<path d="M4451 2194 c0 -11 3 -14 6 -6 3 7 2 16 -1 19 -3 4 -6 -2 -5 -13z"/>
<path d="M4462 2150 c0 -8 4 -26 8 -40 6 -20 8 -21 8 -5 0 11 -3 29 -8 40 -5
12 -8 14 -8 5z"/>
<path d="M4481 2064 c0 -11 3 -14 6 -6 3 7 2 16 -1 19 -3 4 -6 -2 -5 -13z"/>
<path d="M4401 1754 c-1 -22 -40 -141 -61 -186 -7 -15 -17 -25 -21 -22 -12 7
-11 3 2 -36 l12 -33 33 79 c33 79 50 164 41 200 -4 17 -5 17 -6 -2z"/>
<path d="M2160 1339 c0 -9 51 -99 56 -99 2 0 -5 17 -15 38 -24 44 -41 69 -41
61z"/>
<path d="M4455 1310 c-9 -16 -13 -30 -11 -30 3 0 12 14 21 30 9 17 13 30 11
30 -3 0 -12 -13 -21 -30z"/>
<path d="M4388 1193 c-31 -47 -50 -83 -44 -83 2 0 13 15 24 33 11 19 27 46 37
60 9 15 15 27 12 27 -2 0 -15 -17 -29 -37z"/>
</g>
</svg>
